<svg width="120" height="120" viewBox="0 0 120 120" fill="none" xmlns="http://www.w3.org/2000/svg">
<path d="M60 0C48.1331 0 36.5328 3.51894 26.6658 10.1118C16.7989 16.7047 9.10851 26.0754 4.56725 37.039C0.025997 48.0025 -1.1622 60.0665 1.15291 71.7054C3.46802 83.3443 9.18247 94.0352 17.5736 102.426C25.9648 110.818 36.6557 116.532 48.2946 118.847C59.9335 121.162 71.9975 119.974 82.961 115.433C93.9246 110.891 103.295 103.201 109.888 93.3342C116.481 83.4672 120 71.8669 120 60C119.983 44.0922 113.656 28.8409 102.408 17.5924C91.1591 6.34389 75.9078 0.0170167 60 0ZM60 111.429C49.8284 111.429 39.8852 108.412 31.4278 102.761C22.9705 97.1102 16.3787 89.0782 12.4862 79.6808C8.59371 70.2835 7.57526 59.9429 9.55964 49.9668C11.544 39.9906 16.4421 30.8269 23.6345 23.6345C30.8269 16.4421 39.9906 11.544 49.9668 9.55961C59.943 7.57523 70.2835 8.59369 79.6809 12.4862C89.0782 16.3787 97.1102 22.9704 102.761 31.4278C108.412 39.8852 111.429 49.8284 111.429 60C111.414 73.6352 105.991 86.7076 96.3492 96.3492C86.7077 105.991 73.6352 111.414 60 111.429Z" fill="white" fill-opacity="0.8"/>
<path d="M86.9705 35.5417L47.1433 75.3688L33.0305 61.256C32.6351 60.8466 32.1622 60.5201 31.6394 60.2955C31.1165 60.0709 30.5541 59.9527 29.9851 59.9477C29.416 59.9428 28.8517 60.0512 28.325 60.2667C27.7983 60.4822 27.3198 60.8004 26.9174 61.2028C26.515 61.6052 26.1967 62.0837 25.9813 62.6104C25.7658 63.1371 25.6573 63.7015 25.6623 64.2705C25.6672 64.8396 25.7854 65.402 26.0101 65.9248C26.2347 66.4477 26.5612 66.9206 26.9705 67.316L44.1133 84.4588C44.917 85.2623 46.0069 85.7136 47.1433 85.7136C48.2798 85.7136 49.3696 85.2623 50.1733 84.4588L93.0305 41.6017C93.8112 40.7934 94.2431 39.7108 94.2334 38.5871C94.2236 37.4634 93.7729 36.3885 92.9783 35.5939C92.1837 34.7993 91.1087 34.3485 89.9851 34.3388C88.8614 34.329 87.7788 34.761 86.9705 35.5417Z" fill="white" fill-opacity="0.8"/>
</svg>
